<svg width="0" height="0" class="hidden">
  <symbol xmlns="http://www.w3.org/2000/svg" viewBox="0 0 10 16" id="vector">
    <path d="M9.24746 8.15574L4.80473 10.9395L0.35907 8.15574L4.80473 0.332336L9.24746 8.15574ZM4.80473 11.8335L0.35907 9.04968L4.80473 15.6912L9.25038 9.04968L4.80473 11.8335V11.8335Z"></path>
  </symbol>
  <symbol xmlns="http://www.w3.org/2000/svg" viewBox="0 0 24 24" id="filter">
    <g clip-path="url(#clip0_0_399)">
      <path d="M9.33333 20H14.6667V17.3333H9.33333V20ZM0 4V6.66667H24V4H0ZM4 13.3333H20V10.6667H4V13.3333Z" fill="#371C87"></path>
    </g>
    <defs>
      <clipPath id="clip0_0_399">
        <rect width="24" height="24" fill="white"></rect>
      </clipPath>
    </defs>
  </symbol>
  <symbol fill="none" xmlns="http://www.w3.org/2000/svg" viewBox="0 0 36 36" id="linkedin">
    <g clip-path="url(#clip0_0_422)">
      <path d="M18 35.9998C27.9411 35.9998 36 27.9409 36 17.9998C36 8.05863 27.9411 -0.000244141 18 -0.000244141C8.05884 -0.000244141 -3.05176e-05 8.05863 -3.05176e-05 17.9998C-3.05176e-05 27.9409 8.05884 35.9998 18 35.9998Z" fill="#007AB9"></path>
      <path d="M28.7548 19.4481V26.8691H24.4523V19.9455C24.4523 18.207 23.8311 17.0198 22.2733 17.0198C21.0845 17.0198 20.3783 17.8191 20.0664 18.593C19.9531 18.8696 19.9239 19.2537 19.9239 19.6416V26.8688H15.6211C15.6211 26.8688 15.6788 15.1424 15.6211 13.9286H19.9242V15.7623C19.9156 15.7768 19.9034 15.7909 19.8957 15.8047H19.9242V15.7623C20.496 14.8825 21.5157 13.6247 23.8019 13.6247C26.6326 13.6247 28.7548 15.4742 28.7548 19.4481ZM11.12 7.69092C9.64813 7.69092 8.68521 8.65705 8.68521 9.9264C8.68521 11.1688 9.62022 12.1628 11.0635 12.1628H11.0914C12.5921 12.1628 13.5252 11.1688 13.5252 9.9264C13.4966 8.65705 12.5921 7.69092 11.12 7.69092ZM8.94094 26.8691H13.2422V13.9286H8.94094V26.8691Z" fill="#F1F2F2"></path>
    </g>
    <defs>
      <clipPath id="clip0_0_422">
        <rect width="36" height="36" fill="white"></rect>
      </clipPath>
    </defs>
  </symbol>
  <symbol fill="none" xmlns="http://www.w3.org/2000/svg" viewBox="0 0 36 36" id="twitter">
    <g clip-path="url(#clip0_0_417)">
      <path d="M18.0002 35.9997C27.9412 35.9997 36 27.9409 36 17.9998C36 8.0588 27.9412 0 18.0002 0C8.05917 0 0.000366211 8.0588 0.000366211 17.9998C0.000366211 27.9409 8.05917 35.9997 18.0002 35.9997Z" fill="#55ACEE"></path>
      <path d="M29.0257 12.9361C28.2543 13.2781 27.4246 13.5094 26.5544 13.6128C27.4428 13.0804 28.1247 12.2382 28.4465 11.2329C27.6151 11.7261 26.6939 12.0838 25.7143 12.2767C24.9295 11.4408 23.8113 10.9185 22.5731 10.9185C20.1974 10.9185 18.2706 12.8452 18.2706 15.2209C18.2706 15.5582 18.3088 15.8864 18.3826 16.2015C14.8069 16.0221 11.6364 14.3093 9.51424 11.7055C9.14396 12.3408 8.93155 13.0804 8.93155 13.8688C8.93155 15.3611 9.69167 16.6786 10.8455 17.45C10.1406 17.4278 9.4767 17.2343 8.89689 16.9112C8.89657 16.9295 8.89657 16.9478 8.89657 16.9658C8.89657 19.0504 10.3803 20.7892 12.3481 21.1842C11.9875 21.283 11.6066 21.3353 11.2148 21.3353C10.9369 21.3353 10.6677 21.3087 10.4053 21.2586C10.9527 22.9675 12.5413 24.2115 14.4244 24.2465C12.9517 25.4007 11.0967 26.0883 9.08043 26.0883C8.7339 26.0883 8.39057 26.0681 8.05463 26.0279C9.95767 27.2492 12.2198 27.9612 14.6493 27.9612C22.5631 27.9612 26.891 21.4053 26.891 15.7192C26.891 15.5328 26.8868 15.347 26.8784 15.1628C27.7198 14.5564 28.4491 13.7989 29.0257 12.9361Z" fill="#F1F2F2"></path>
    </g>
    <defs>
      <clipPath id="clip0_0_417">
        <rect width="36" height="36" fill="white"></rect>
      </clipPath>
    </defs>
  </symbol>
  <symbol fill="none" xmlns="http://www.w3.org/2000/svg" viewBox="0 0 36 36" id="fb">
    <path d="M18 36C27.9411 36 36 27.9411 36 18C36 8.05888 27.9411 0 18 0C8.05888 0 0 8.05888 0 18C0 27.9411 8.05888 36 18 36Z" fill="#3B5998"></path>
    <path d="M22.5252 18.7045H19.3133V30.4713H14.447V18.7045H12.1326V14.5692H14.447V11.8931C14.447 9.97949 15.3561 6.98291 19.3566 6.98291L22.9613 6.99799V11.012H20.3459C19.9169 11.012 19.3136 11.2264 19.3136 12.1392V14.573H22.9503L22.5252 18.7045Z" fill="white"></path>
  </symbol>
  <symbol xmlns="http://www.w3.org/2000/svg" viewBox="0 0 24 24" id="search">
    <path d="M11.5 21.75C5.85 21.75 1.25 17.15 1.25 11.5C1.25 5.85 5.85 1.25 11.5 1.25C17.15 1.25 21.75 5.85 21.75 11.5C21.75 17.15 17.15 21.75 11.5 21.75ZM11.5 2.75C6.67 2.75 2.75 6.68 2.75 11.5C2.75 16.32 6.67 20.25 11.5 20.25C16.33 20.25 20.25 16.32 20.25 11.5C20.25 6.68 16.33 2.75 11.5 2.75Z" fill="#757575"></path>
    <path d="M22.0004 22.7499C21.8104 22.7499 21.6204 22.6799 21.4704 22.5299L19.4704 20.5299C19.1804 20.2399 19.1804 19.7599 19.4704 19.4699C19.7604 19.1799 20.2404 19.1799 20.5304 19.4699L22.5304 21.4699C22.8204 21.7599 22.8204 22.2399 22.5304 22.5299C22.3804 22.6799 22.1904 22.7499 22.0004 22.7499Z" fill="#757575"></path>
  </symbol>
  <symbol xmlns="http://www.w3.org/2000/svg" viewBox="0 0 32 38" id="compass">
    <g clip-path="url(#clip0_0_182)">
      <path d="M23.5794 23.7803L12.9942 24.1631L8.02793 14.8017L23.7091 5.60434L23.5794 23.7803ZM12.0912 25.7272L7.12492 16.3657L8.19429 32.4768L22.6815 25.3474L12.0912 25.7272V25.7272Z"></path>
    </g>
    <defs>
      <clipPath id="clip0_0_182">
        <rect width="18.9087" height="31.0296" fill="white" transform="translate(15.5215 0.877197) rotate(30)"></rect>
      </clipPath>
    </defs>
  </symbol>
  <symbol xmlns="http://www.w3.org/2000/svg" viewBox="0 0 36 36" id="chart_square">
    <path d="M15.1655 27.2245H9.48047C8.86547 27.2245 8.35547 26.7145 8.35547 26.0995V18.4195C8.35547 16.8595 9.63045 15.5844 11.1905 15.5844H15.1655C15.7805 15.5844 16.2905 16.0944 16.2905 16.7094V26.0844C16.2905 26.7144 15.7805 27.2245 15.1655 27.2245ZM10.6055 24.9745H14.0404V17.8495H11.1905C10.8755 17.8495 10.6055 18.1044 10.6055 18.4344V24.9745Z" fill="#292D32"></path>
    <path d="M20.8344 27.2245H15.1494C14.5344 27.2245 14.0244 26.7145 14.0244 26.0995V11.6094C14.0244 10.0494 15.2994 8.77441 16.8594 8.77441H19.1394C20.6994 8.77441 21.9744 10.0494 21.9744 11.6094V26.0995C21.9594 26.7145 21.4644 27.2245 20.8344 27.2245ZM16.2894 24.9745H19.7244V11.6094C19.7244 11.2944 19.4694 11.0244 19.1394 11.0244H16.8594C16.5444 11.0244 16.2744 11.2794 16.2744 11.6094V24.9745H16.2894Z" fill="#292D32"></path>
    <path d="M26.5209 27.2246H20.8359C20.2209 27.2246 19.7109 26.7146 19.7109 26.0996V19.2744C19.7109 18.6594 20.2209 18.1494 20.8359 18.1494H24.8109C26.3709 18.1494 27.6459 19.4244 27.6459 20.9844V26.0996C27.6459 26.7146 27.1509 27.2246 26.5209 27.2246ZM21.9609 24.9746H25.3959V20.9844C25.3959 20.6694 25.1409 20.3994 24.8109 20.3994H21.9609V24.9746Z" fill="#292D32"></path>
    <path d="M22.5 34.125H13.5C5.355 34.125 1.875 30.645 1.875 22.5V13.5C1.875 5.355 5.355 1.875 13.5 1.875H22.5C30.645 1.875 34.125 5.355 34.125 13.5V22.5C34.125 30.645 30.645 34.125 22.5 34.125ZM13.5 4.125C6.585 4.125 4.125 6.585 4.125 13.5V22.5C4.125 29.415 6.585 31.875 13.5 31.875H22.5C29.415 31.875 31.875 29.415 31.875 22.5V13.5C31.875 6.585 29.415 4.125 22.5 4.125H13.5Z" fill="#292D32"></path>
  </symbol>
  <symbol xmlns="http://www.w3.org/2000/svg" viewBox="0 0 28 28" id="tick">
    <path d="M26.7479 12.3182L24.9345 10.2115C24.5879 9.8115 24.3079 9.06483 24.3079 8.5315V6.26483C24.3079 4.8515 23.1479 3.6915 21.7345 3.6915H19.4679C18.9479 3.6915 18.1879 3.4115 17.7879 3.06483L15.6812 1.2515C14.7612 0.464832 13.2545 0.464832 12.3212 1.2515L10.2278 3.07817C9.8278 3.4115 9.0678 3.6915 8.5478 3.6915H6.24114C4.8278 3.6915 3.6678 4.8515 3.6678 6.26483V8.54483C3.6678 9.06483 3.3878 9.8115 3.05447 10.2115L1.25447 12.3315C0.481136 13.2515 0.481136 14.7448 1.25447 15.6648L3.05447 17.7848C3.3878 18.1848 3.6678 18.9315 3.6678 19.4515V21.7315C3.6678 23.1448 4.8278 24.3048 6.24114 24.3048H8.5478C9.0678 24.3048 9.8278 24.5848 10.2278 24.9315L12.3345 26.7448C13.2545 27.5315 14.7612 27.5315 15.6945 26.7448L17.8012 24.9315C18.2012 24.5848 18.9479 24.3048 19.4812 24.3048H21.7479C23.1612 24.3048 24.3212 23.1448 24.3212 21.7315V19.4648C24.3212 18.9448 24.6012 18.1848 24.9479 17.7848L26.7612 15.6782C27.5345 14.7582 27.5345 13.2382 26.7479 12.3182ZM19.5479 11.4782L13.1079 17.9182C12.9212 18.1048 12.6679 18.2115 12.4012 18.2115C12.1345 18.2115 11.8812 18.1048 11.6945 17.9182L8.4678 14.6915C8.08114 14.3048 8.08114 13.6648 8.4678 13.2782C8.85447 12.8915 9.49447 12.8915 9.88113 13.2782L12.4012 15.7982L18.1345 10.0648C18.5212 9.67817 19.1612 9.67817 19.5479 10.0648C19.9345 10.4515 19.9345 11.0915 19.5479 11.4782Z" fill="#1E93FF"></path>
  </symbol>
  <symbol xmlns="http://www.w3.org/2000/svg" viewBox="0 0 36 36" id="card_tick">
    <path d="M20.25 13.875H3C2.385 13.875 1.875 13.365 1.875 12.75C1.875 12.135 2.385 11.625 3 11.625H20.25C20.865 11.625 21.375 12.135 21.375 12.75C21.375 13.365 20.865 13.875 20.25 13.875Z"></path>
    <path d="M12 25.875H9C8.385 25.875 7.875 25.365 7.875 24.75C7.875 24.135 8.385 23.625 9 23.625H12C12.615 23.625 13.125 24.135 13.125 24.75C13.125 25.365 12.615 25.875 12 25.875Z"></path>
    <path d="M21.75 25.875H15.75C15.135 25.875 14.625 25.365 14.625 24.75C14.625 24.135 15.135 23.625 15.75 23.625H21.75C22.365 23.625 22.875 24.135 22.875 24.75C22.875 25.365 22.365 25.875 21.75 25.875Z"></path>
    <path d="M26.34 31.875H9.66C3.69 31.875 1.875 30.075 1.875 24.165V11.835C1.875 5.925 3.69 4.125 9.66 4.125H20.25C20.865 4.125 21.375 4.635 21.375 5.25C21.375 5.865 20.865 6.375 20.25 6.375H9.66C4.95 6.375 4.125 7.185 4.125 11.835V24.15C4.125 28.8 4.95 29.61 9.66 29.61H26.325C31.035 29.61 31.86 28.8 31.86 24.15V16.53C31.86 15.915 32.37 15.405 32.985 15.405C33.6 15.405 34.11 15.915 34.11 16.53V24.15C34.125 30.075 32.31 31.875 26.34 31.875Z" fill="black"></path>
    <path d="M26.9992 12.3756C26.7142 12.3756 26.4292 12.2706 26.2042 12.0456L23.9542 9.79564C23.5192 9.36064 23.5192 8.64064 23.9542 8.20564C24.3892 7.77064 25.1092 7.77064 25.5442 8.20564L26.9992 9.66064L32.2042 4.45564C32.6392 4.02064 33.3592 4.02064 33.7942 4.45564C34.2292 4.89064 34.2292 5.61064 33.7942 6.04564L27.7942 12.0456C27.5692 12.2706 27.2842 12.3756 26.9992 12.3756Z" fill="black"></path>
  </symbol>
</svg>