<svg width="0" height="0" class="hidden">
  <symbol fill="none" xmlns="http://www.w3.org/2000/svg" viewBox="0 0 22 18" id="twitch">
    <path d="M21.0257 2.93605C20.2543 3.27809 19.4246 3.50943 18.5544 3.61275C19.4428 3.08044 20.1247 2.23817 20.4465 1.2329C19.6151 1.72607 18.6939 2.08384 17.7143 2.27668C16.9295 1.44082 15.8113 0.918457 14.5731 0.918457C12.1974 0.918457 10.2706 2.84525 10.2706 5.22092C10.2706 5.55815 10.3088 5.8864 10.3826 6.20149C6.80689 6.02212 3.63643 4.30935 1.51424 1.70554C1.14396 2.34085 0.931548 3.08044 0.931548 3.8688C0.931548 5.36114 1.69167 6.67861 2.8455 7.44997C2.14056 7.42783 1.4767 7.23435 0.896895 6.91124C0.896574 6.92953 0.896574 6.94781 0.896574 6.96578C0.896574 9.05044 2.38025 10.7892 4.34811 11.1842C3.98746 11.283 3.60659 11.3353 3.21482 11.3353C2.93695 11.3353 2.66774 11.3087 2.40528 11.2586C2.95267 12.9675 4.54127 14.2115 6.42442 14.2465C4.95166 15.4007 3.09674 16.0883 1.08043 16.0883C0.733896 16.0883 0.390571 16.0681 0.0546265 16.0279C1.95767 17.2492 4.21976 17.9612 6.64935 17.9612C14.5631 17.9612 18.891 11.4053 18.891 5.71923C18.891 5.5328 18.8868 5.34702 18.8784 5.16285C19.7198 4.55641 20.4491 3.79886 21.0257 2.93605Z" fill="#F1F2F2"></path>
  </symbol>
  <symbol fill="none" xmlns="http://www.w3.org/2000/svg" viewBox="0 0 32 38" id="compass">
    <g clip-path="url(#clip0_0_182)">
      <path d="M23.5794 23.7803L12.9942 24.1631L8.02793 14.8017L23.7091 5.60434L23.5794 23.7803ZM12.0912 25.7272L7.12492 16.3657L8.19429 32.4768L22.6815 25.3474L12.0912 25.7272V25.7272Z" fill="black"></path>
    </g>
    <defs>
      <clipPath id="clip0_0_182">
        <rect width="18.9087" height="31.0296" fill="white" transform="translate(15.5215 0.877197) rotate(30)"></rect>
      </clipPath>
    </defs>
  </symbol>
  <symbol fill="none" xmlns="http://www.w3.org/2000/svg" viewBox="0 0 36 36" id="card_tick">
    <path d="M20.25 13.875H3C2.385 13.875 1.875 13.365 1.875 12.75C1.875 12.135 2.385 11.625 3 11.625H20.25C20.865 11.625 21.375 12.135 21.375 12.75C21.375 13.365 20.865 13.875 20.25 13.875Z" fill="black"></path>
    <path d="M12 25.875H9C8.385 25.875 7.875 25.365 7.875 24.75C7.875 24.135 8.385 23.625 9 23.625H12C12.615 23.625 13.125 24.135 13.125 24.75C13.125 25.365 12.615 25.875 12 25.875Z" fill="black"></path>
    <path d="M21.75 25.875H15.75C15.135 25.875 14.625 25.365 14.625 24.75C14.625 24.135 15.135 23.625 15.75 23.625H21.75C22.365 23.625 22.875 24.135 22.875 24.75C22.875 25.365 22.365 25.875 21.75 25.875Z" fill="black"></path>
    <path d="M26.34 31.875H9.66C3.69 31.875 1.875 30.075 1.875 24.165V11.835C1.875 5.925 3.69 4.125 9.66 4.125H20.25C20.865 4.125 21.375 4.635 21.375 5.25C21.375 5.865 20.865 6.375 20.25 6.375H9.66C4.95 6.375 4.125 7.185 4.125 11.835V24.15C4.125 28.8 4.95 29.61 9.66 29.61H26.325C31.035 29.61 31.86 28.8 31.86 24.15V16.53C31.86 15.915 32.37 15.405 32.985 15.405C33.6 15.405 34.11 15.915 34.11 16.53V24.15C34.125 30.075 32.31 31.875 26.34 31.875Z" fill="black"></path>
    <path d="M26.9992 12.3756C26.7142 12.3756 26.4292 12.2706 26.2042 12.0456L23.9542 9.79564C23.5192 9.36064 23.5192 8.64064 23.9542 8.20564C24.3892 7.77064 25.1092 7.77064 25.5442 8.20564L26.9992 9.66064L32.2042 4.45564C32.6392 4.02064 33.3592 4.02064 33.7942 4.45564C34.2292 4.89064 34.2292 5.61064 33.7942 6.04564L27.7942 12.0456C27.5692 12.2706 27.2842 12.3756 26.9992 12.3756Z" fill="black"></path>
  </symbol>
  <symbol fill="none" xmlns="http://www.w3.org/2000/svg" viewBox="0 0 36 36" id="chart_square">
    <path d="M15.1655 27.2245H9.48047C8.86547 27.2245 8.35547 26.7145 8.35547 26.0995V18.4195C8.35547 16.8595 9.63045 15.5844 11.1905 15.5844H15.1655C15.7805 15.5844 16.2905 16.0944 16.2905 16.7094V26.0844C16.2905 26.7144 15.7805 27.2245 15.1655 27.2245ZM10.6055 24.9745H14.0404V17.8495H11.1905C10.8755 17.8495 10.6055 18.1044 10.6055 18.4344V24.9745Z" fill="#292D32"></path>
    <path d="M20.8344 27.2245H15.1494C14.5344 27.2245 14.0244 26.7145 14.0244 26.0995V11.6094C14.0244 10.0494 15.2994 8.77441 16.8594 8.77441H19.1394C20.6994 8.77441 21.9744 10.0494 21.9744 11.6094V26.0995C21.9594 26.7145 21.4644 27.2245 20.8344 27.2245ZM16.2894 24.9745H19.7244V11.6094C19.7244 11.2944 19.4694 11.0244 19.1394 11.0244H16.8594C16.5444 11.0244 16.2744 11.2794 16.2744 11.6094V24.9745H16.2894Z" fill="#292D32"></path>
    <path d="M26.5209 27.2246H20.8359C20.2209 27.2246 19.7109 26.7146 19.7109 26.0996V19.2744C19.7109 18.6594 20.2209 18.1494 20.8359 18.1494H24.8109C26.3709 18.1494 27.6459 19.4244 27.6459 20.9844V26.0996C27.6459 26.7146 27.1509 27.2246 26.5209 27.2246ZM21.9609 24.9746H25.3959V20.9844C25.3959 20.6694 25.1409 20.3994 24.8109 20.3994H21.9609V24.9746Z" fill="#292D32"></path>
    <path d="M22.5 34.125H13.5C5.355 34.125 1.875 30.645 1.875 22.5V13.5C1.875 5.355 5.355 1.875 13.5 1.875H22.5C30.645 1.875 34.125 5.355 34.125 13.5V22.5C34.125 30.645 30.645 34.125 22.5 34.125ZM13.5 4.125C6.585 4.125 4.125 6.585 4.125 13.5V22.5C4.125 29.415 6.585 31.875 13.5 31.875H22.5C29.415 31.875 31.875 29.415 31.875 22.5V13.5C31.875 6.585 29.415 4.125 22.5 4.125H13.5Z" fill="#292D32"></path>
  </symbol>
  <symbol fill="none" xmlns="http://www.w3.org/2000/svg" viewBox="0 0 11 25" id="fb">
    <path d="M10.5252 12.7045H7.31331V24.4713H2.44704V12.7045H0.132629V8.56917H2.44704V5.89314C2.44704 3.97949 3.35606 0.98291 7.35663 0.98291L10.9613 0.997991V5.01204H8.34586C7.91686 5.01204 7.31363 5.22638 7.31363 6.13924V8.57302H10.9503L10.5252 12.7045Z" fill="white"></path>
  </symbol>
  <symbol fill="none" xmlns="http://www.w3.org/2000/svg" viewBox="0 0 21 20" id="linkerin">
    <path d="M20.7548 12.4481V19.8691H16.4523V12.9455C16.4523 11.207 15.8311 10.0198 14.2733 10.0198C13.0845 10.0198 12.3783 10.8191 12.0664 11.593C11.9531 11.8696 11.9239 12.2537 11.9239 12.6416V19.8688H7.62107C7.62107 19.8688 7.67883 8.14241 7.62107 6.92857H11.9242V8.76233C11.9156 8.77677 11.9034 8.79089 11.8957 8.80468H11.9242V8.76233C12.496 7.88251 13.5157 6.62471 15.8019 6.62471C18.6326 6.62471 20.7548 8.47419 20.7548 12.4481ZM3.11995 0.690918C1.64813 0.690918 0.685211 1.65705 0.685211 2.9264C0.685211 4.1688 1.62022 5.16284 3.06348 5.16284H3.09139C4.59209 5.16284 5.52517 4.1688 5.52517 2.9264C5.49661 1.65705 4.59209 0.690918 3.11995 0.690918ZM0.940942 19.8691H5.24217V6.92857H0.940942V19.8691Z" fill="#F1F2F2"></path>
  </symbol>
  <symbol fill="none" xmlns="http://www.w3.org/2000/svg" viewBox="0 0 28 28" id="tick">
    <path d="M26.7479 12.3182L24.9345 10.2115C24.5879 9.8115 24.3079 9.06483 24.3079 8.5315V6.26483C24.3079 4.8515 23.1479 3.6915 21.7345 3.6915H19.4679C18.9479 3.6915 18.1879 3.4115 17.7879 3.06483L15.6812 1.2515C14.7612 0.464832 13.2545 0.464832 12.3212 1.2515L10.2278 3.07817C9.8278 3.4115 9.0678 3.6915 8.5478 3.6915H6.24114C4.8278 3.6915 3.6678 4.8515 3.6678 6.26483V8.54483C3.6678 9.06483 3.3878 9.8115 3.05447 10.2115L1.25447 12.3315C0.481136 13.2515 0.481136 14.7448 1.25447 15.6648L3.05447 17.7848C3.3878 18.1848 3.6678 18.9315 3.6678 19.4515V21.7315C3.6678 23.1448 4.8278 24.3048 6.24114 24.3048H8.5478C9.0678 24.3048 9.8278 24.5848 10.2278 24.9315L12.3345 26.7448C13.2545 27.5315 14.7612 27.5315 15.6945 26.7448L17.8012 24.9315C18.2012 24.5848 18.9479 24.3048 19.4812 24.3048H21.7479C23.1612 24.3048 24.3212 23.1448 24.3212 21.7315V19.4648C24.3212 18.9448 24.6012 18.1848 24.9479 17.7848L26.7612 15.6782C27.5345 14.7582 27.5345 13.2382 26.7479 12.3182ZM19.5479 11.4782L13.1079 17.9182C12.9212 18.1048 12.6679 18.2115 12.4012 18.2115C12.1345 18.2115 11.8812 18.1048 11.6945 17.9182L8.4678 14.6915C8.08114 14.3048 8.08114 13.6648 8.4678 13.2782C8.85447 12.8915 9.49447 12.8915 9.88113 13.2782L12.4012 15.7982L18.1345 10.0648C18.5212 9.67817 19.1612 9.67817 19.5479 10.0648C19.9345 10.4515 19.9345 11.0915 19.5479 11.4782Z" fill="#1E93FF"></path>
  </symbol>
</svg>